<svg id="blog" xmlns="http://www.w3.org/2000/svg" xmlns:xlink="http://www.w3.org/1999/xlink" viewBox="0 0 16 16"><defs><style>.cls-1{fill:none;}.cls-2{clip-path:url(#clip-path);}.cls-3{fill:#c69c6d;}.cls-4{fill:#8c6239;}.cls-5{fill:#603813;}.cls-6{fill:#a67c52;}.cls-7{fill:#754c24;}.cls-8{fill:#e2b88d;}</style><clipPath id="clip-path"><circle class="cls-1" cx="8" cy="8" r="8"/></clipPath></defs><title>The Thinking Rocksvg</title><g class="cls-2"><polygon class="cls-3" points="8 8 0 5 0 0 5 0 8 8"/><polygon class="cls-4" points="8 8 11 0 16 0 16 5 8 8"/><polygon class="cls-5" points="8 8 16 11 16 16 11 16 8 8"/><polygon class="cls-4" points="8 8 5 16 0 16 0 11 8 8"/><polygon class="cls-6" points="8 8 0 11 0 5 8 8"/><polygon class="cls-6" points="8 8 5 0 11 0 8 8"/><polygon class="cls-7" points="8 8 11 16 5 16 8 8"/><polygon class="cls-7" points="8 8 16 5 16 11 8 8"/></g><circle class="cls-8" cx="8" cy="8" r="6"/><path d="M10,12,7.22,8.46H6.08v3.35a.37.37,0,0,1-.74,0V4.38A.36.36,0,0,1,5.7,4H8.49a2.23,2.23,0,1,1,0,4.46H8.17l2.46,3.11a.37.37,0,0,1,.09.24.39.39,0,0,1-.39.37A.36.36,0,0,1,10,12Zm-4-4.32H8.49a1.49,1.49,0,1,0,0-3H6.08Z"/></svg>